<mxfile host="app.diagrams.net" modified="2024-03-23T00:17:20.580Z" agent="Mozilla/5.0 (Macintosh; Intel Mac OS X 10_15_7) AppleWebKit/537.36 (KHTML, like Gecko) Chrome/123.0.0.0 Safari/537.36" etag="vMEv1nO09FCtpjCQ4Mni" version="24.0.8" type="device">
  <diagram name="Page-1" id="1NtzMLRQ6dpIe7uSjsVW">
    <mxGraphModel dx="1398" dy="940" grid="1" gridSize="10" guides="1" tooltips="1" connect="1" arrows="1" fold="1" page="1" pageScale="1" pageWidth="850" pageHeight="1100" math="0" shadow="0">
      <root>
        <mxCell id="0" />
        <mxCell id="1" parent="0" />
        <mxCell id="ZGkR0UaX35c6h_ADYMLz-27" style="edgeStyle=orthogonalEdgeStyle;rounded=0;orthogonalLoop=1;jettySize=auto;html=1;entryX=0.5;entryY=0;entryDx=0;entryDy=0;" edge="1" parent="1" source="ZGkR0UaX35c6h_ADYMLz-3" target="ZGkR0UaX35c6h_ADYMLz-2">
          <mxGeometry relative="1" as="geometry" />
        </mxCell>
        <mxCell id="ZGkR0UaX35c6h_ADYMLz-28" style="edgeStyle=orthogonalEdgeStyle;rounded=0;orthogonalLoop=1;jettySize=auto;html=1;entryX=0.5;entryY=0;entryDx=0;entryDy=0;" edge="1" parent="1" source="ZGkR0UaX35c6h_ADYMLz-3" target="ZGkR0UaX35c6h_ADYMLz-1">
          <mxGeometry relative="1" as="geometry" />
        </mxCell>
        <mxCell id="ZGkR0UaX35c6h_ADYMLz-29" style="edgeStyle=orthogonalEdgeStyle;rounded=0;orthogonalLoop=1;jettySize=auto;html=1;entryX=0;entryY=0.5;entryDx=0;entryDy=0;" edge="1" parent="1" source="ZGkR0UaX35c6h_ADYMLz-3" target="ZGkR0UaX35c6h_ADYMLz-7">
          <mxGeometry relative="1" as="geometry">
            <Array as="points">
              <mxPoint x="320" y="480" />
            </Array>
          </mxGeometry>
        </mxCell>
        <mxCell id="ZGkR0UaX35c6h_ADYMLz-3" value="Runner" style="whiteSpace=wrap;html=1;aspect=fixed;" vertex="1" parent="1">
          <mxGeometry x="290" y="110" width="80" height="80" as="geometry" />
        </mxCell>
        <mxCell id="ZGkR0UaX35c6h_ADYMLz-25" value="&lt;font style=&quot;font-size: 17px;&quot;&gt;Metro&lt;/font&gt;" style="swimlane;whiteSpace=wrap;html=1;startSize=30;" vertex="1" parent="1">
          <mxGeometry x="80" y="40" width="680" height="650" as="geometry" />
        </mxCell>
        <mxCell id="ZGkR0UaX35c6h_ADYMLz-5" value="Visualizer" style="whiteSpace=wrap;html=1;aspect=fixed;" vertex="1" parent="ZGkR0UaX35c6h_ADYMLz-25">
          <mxGeometry x="40" y="490" width="80" height="80" as="geometry" />
        </mxCell>
        <mxCell id="ZGkR0UaX35c6h_ADYMLz-8" value="db:metro" style="shape=cylinder3;whiteSpace=wrap;html=1;boundedLbl=1;backgroundOutline=1;size=15;" vertex="1" parent="ZGkR0UaX35c6h_ADYMLz-25">
          <mxGeometry x="560" y="160" width="80" height="80" as="geometry" />
        </mxCell>
        <mxCell id="ZGkR0UaX35c6h_ADYMLz-1" value="Baso" style="rounded=0;whiteSpace=wrap;html=1;" vertex="1" parent="ZGkR0UaX35c6h_ADYMLz-25">
          <mxGeometry x="400" y="250" width="80" height="80" as="geometry" />
        </mxCell>
        <mxCell id="ZGkR0UaX35c6h_ADYMLz-19" style="edgeStyle=orthogonalEdgeStyle;rounded=0;orthogonalLoop=1;jettySize=auto;html=1;entryX=0;entryY=0.5;entryDx=0;entryDy=0;entryPerimeter=0;" edge="1" parent="ZGkR0UaX35c6h_ADYMLz-25" source="ZGkR0UaX35c6h_ADYMLz-1" target="ZGkR0UaX35c6h_ADYMLz-8">
          <mxGeometry relative="1" as="geometry" />
        </mxCell>
        <mxCell id="ZGkR0UaX35c6h_ADYMLz-7" value="WS" style="whiteSpace=wrap;html=1;aspect=fixed;" vertex="1" parent="ZGkR0UaX35c6h_ADYMLz-25">
          <mxGeometry x="400" y="400" width="80" height="80" as="geometry" />
        </mxCell>
        <mxCell id="ZGkR0UaX35c6h_ADYMLz-21" style="edgeStyle=orthogonalEdgeStyle;rounded=0;orthogonalLoop=1;jettySize=auto;html=1;entryX=0.5;entryY=1;entryDx=0;entryDy=0;startArrow=classic;startFill=1;" edge="1" parent="ZGkR0UaX35c6h_ADYMLz-25" source="ZGkR0UaX35c6h_ADYMLz-7" target="ZGkR0UaX35c6h_ADYMLz-1">
          <mxGeometry relative="1" as="geometry" />
        </mxCell>
        <mxCell id="ZGkR0UaX35c6h_ADYMLz-35" style="edgeStyle=orthogonalEdgeStyle;rounded=0;orthogonalLoop=1;jettySize=auto;html=1;entryX=0.5;entryY=1;entryDx=0;entryDy=0;startArrow=classic;startFill=1;" edge="1" parent="ZGkR0UaX35c6h_ADYMLz-25" source="ZGkR0UaX35c6h_ADYMLz-5" target="ZGkR0UaX35c6h_ADYMLz-7">
          <mxGeometry relative="1" as="geometry">
            <Array as="points">
              <mxPoint x="80" y="610" />
              <mxPoint x="440" y="610" />
            </Array>
          </mxGeometry>
        </mxCell>
        <mxCell id="ZGkR0UaX35c6h_ADYMLz-2" value="CityServer" style="whiteSpace=wrap;html=1;aspect=fixed;" vertex="1" parent="ZGkR0UaX35c6h_ADYMLz-25">
          <mxGeometry x="100" y="370" width="80" height="80" as="geometry" />
        </mxCell>
        <mxCell id="ZGkR0UaX35c6h_ADYMLz-36" style="edgeStyle=orthogonalEdgeStyle;rounded=0;orthogonalLoop=1;jettySize=auto;html=1;entryX=0.5;entryY=0;entryDx=0;entryDy=0;startArrow=classic;startFill=1;" edge="1" parent="ZGkR0UaX35c6h_ADYMLz-25" source="ZGkR0UaX35c6h_ADYMLz-2" target="ZGkR0UaX35c6h_ADYMLz-5">
          <mxGeometry relative="1" as="geometry">
            <Array as="points">
              <mxPoint x="80" y="410" />
            </Array>
          </mxGeometry>
        </mxCell>
        <mxCell id="ZGkR0UaX35c6h_ADYMLz-37" style="edgeStyle=orthogonalEdgeStyle;rounded=0;orthogonalLoop=1;jettySize=auto;html=1;entryX=0;entryY=0.5;entryDx=0;entryDy=0;exitX=0.25;exitY=0;exitDx=0;exitDy=0;" edge="1" parent="ZGkR0UaX35c6h_ADYMLz-25" source="ZGkR0UaX35c6h_ADYMLz-2" target="ZGkR0UaX35c6h_ADYMLz-1">
          <mxGeometry relative="1" as="geometry">
            <Array as="points">
              <mxPoint x="140" y="370" />
              <mxPoint x="140" y="290" />
            </Array>
          </mxGeometry>
        </mxCell>
        <mxCell id="ZGkR0UaX35c6h_ADYMLz-32" value="" style="edgeStyle=orthogonalEdgeStyle;rounded=0;orthogonalLoop=1;jettySize=auto;html=1;startArrow=classic;startFill=1;" edge="1" parent="1" source="ZGkR0UaX35c6h_ADYMLz-2" target="ZGkR0UaX35c6h_ADYMLz-6">
          <mxGeometry relative="1" as="geometry">
            <mxPoint x="290" y="570" as="targetPoint" />
            <mxPoint x="240" y="450" as="sourcePoint" />
            <Array as="points">
              <mxPoint x="290" y="450" />
            </Array>
          </mxGeometry>
        </mxCell>
        <mxCell id="ZGkR0UaX35c6h_ADYMLz-6" value="City Editor" style="whiteSpace=wrap;html=1;aspect=fixed;" vertex="1" parent="1">
          <mxGeometry x="250" y="530" width="80" height="80" as="geometry" />
        </mxCell>
      </root>
    </mxGraphModel>
  </diagram>
</mxfile>
